<svg id="a7e0e99f-26d5-458a-838f-64b497f51ed5" data-name="レイヤー 1" xmlns="http://www.w3.org/2000/svg" viewBox="0 0 85 65"><defs><style>.a01f79bf-3107-4b95-87f6-706f6dbcda87{fill:#fff;}</style></defs><path class="a01f79bf-3107-4b95-87f6-706f6dbcda87" d="M43,55.32H79.22a2.5,2.5,0,0,0,2.5-2.5V31.5a2.5,2.5,0,0,0-2.5-2.5H43a2.5,2.5,0,0,0-2.5,2.5V52.82A2.5,2.5,0,0,0,43,55.32Zm1.33-23H77.89v19H44.32Z"/><path class="a01f79bf-3107-4b95-87f6-706f6dbcda87" d="M84.63,62.27l-4.47-4a1.68,1.68,0,0,0-1.13-.4H43.18a1.68,1.68,0,0,0-1.13.4l-4.47,4a1,1,0,0,0-.37.77v1.38A.68.68,0,0,0,38,65H84.25a.68.68,0,0,0,.75-.58V63A1,1,0,0,0,84.63,62.27ZM56,62.74,57.28,61h8.19l1.29,1.75Z"/><path class="a01f79bf-3107-4b95-87f6-706f6dbcda87" d="M16.44,36.89a15.32,15.32,0,0,1-8.71-2.52,10.86,10.86,0,0,1-4.56-6.69,11.4,11.4,0,0,1-.27-2.47,14.43,14.43,0,0,1,2.74-8.14,10.46,10.46,0,0,1-2.12-2A17.56,17.56,0,0,0,0,25.21,14,14,0,0,0,.34,28.3a13.75,13.75,0,0,0,5.74,8.45,18.19,18.19,0,0,0,10.36,3,22.48,22.48,0,0,0,6.52-1L21,36.33A19.6,19.6,0,0,1,16.44,36.89Z"/><path class="a01f79bf-3107-4b95-87f6-706f6dbcda87" d="M36.29,12A13.93,13.93,0,0,0,30.48,7.1a19,19,0,0,0-7.94-1.67,23.25,23.25,0,0,0-6.79,1,25.4,25.4,0,0,0-2.81,1l0,.05a11.08,11.08,0,0,1,1.35,2.5,20.9,20.9,0,0,1,2.26-.82,20.3,20.3,0,0,1,5.95-.91,16,16,0,0,1,6.71,1.39,11,11,0,0,1,4.62,3.84,2.82,2.82,0,0,1,.57,1.55,1.36,1.36,0,0,1-.2.73,2.1,2.1,0,0,1-.5.58,5.24,5.24,0,0,1-1.71.88,13.76,13.76,0,0,1-3.07.58,5.81,5.81,0,0,0-3.65,1.55A4.43,4.43,0,0,0,24,22.58a4.55,4.55,0,0,0,1.49,3.35,5.68,5.68,0,0,0,3.94,1.44H30a4.45,4.45,0,0,1,1.34.17,1.41,1.41,0,0,1,.76.52,1.24,1.24,0,0,1,.18.68,1.9,1.9,0,0,1-.11.63,1.29,1.29,0,0,1-.19.37,20.15,20.15,0,0,1-3.27,3l1.6,2.41a23,23,0,0,0,3.87-3.54,4.06,4.06,0,0,0,.73-1.32,4.72,4.72,0,0,0,.27-1.58,4.3,4.3,0,0,0-.28-1.54,4,4,0,0,0-1.74-2A6.29,6.29,0,0,0,30,24.45l-.42,0h-.18a2.8,2.8,0,0,1-2-.66,1.72,1.72,0,0,1-.57-1.23,1.51,1.51,0,0,1,.47-1.08,2.9,2.9,0,0,1,1.85-.72A12.45,12.45,0,0,0,35.1,19a5.46,5.46,0,0,0,1.66-1.73,4.41,4.41,0,0,0,.58-2.19A5.72,5.72,0,0,0,36.29,12Z"/><path class="a01f79bf-3107-4b95-87f6-706f6dbcda87" d="M31,15.88a2.58,2.58,0,0,0,.75-1.81,2.56,2.56,0,0,0-2.55-2.55,2.54,2.54,0,0,0-2.55,2.55,2.54,2.54,0,0,0,2.55,2.56A2.58,2.58,0,0,0,31,15.88Z"/><path class="a01f79bf-3107-4b95-87f6-706f6dbcda87" d="M10,22a2.21,2.21,0,1,0-2.79,1.39A2.21,2.21,0,0,0,10,22Z"/><path class="a01f79bf-3107-4b95-87f6-706f6dbcda87" d="M10.06,30.78a2.09,2.09,0,1,0-2.95.08A2.1,2.1,0,0,0,10.06,30.78Z"/><path class="a01f79bf-3107-4b95-87f6-706f6dbcda87" d="M21,14.64a2.44,2.44,0,1,0-2.7-2.14A2.44,2.44,0,0,0,21,14.64Z"/><path class="a01f79bf-3107-4b95-87f6-706f6dbcda87" d="M4.61,13.57a7.47,7.47,0,0,0,5.06,3.31h.07l3.31-2.37,0-.07a7.51,7.51,0,0,0-1.51-5.86A22,22,0,0,0,7.32,4.36a31.74,31.74,0,0,1-3-2.68A10.3,10.3,0,0,1,3.28.42L3,0,2.81.25c-1,1.19-1.4,3.32-1.1,5.85A16.26,16.26,0,0,0,4.61,13.57Zm.73-3.14c1.08,1.22,1.59.42.94-.83C5.46,8,6.29,8,6.79,8.47S7.91,10,8.45,9.73c.33-.19,0-.86-.48-1.88-.26-.58,0-1.46,1.32-.29a12.55,12.55,0,0,1,1.4,1.65,5.82,5.82,0,0,1,1.18,4.16L9,15.4A5.83,5.83,0,0,1,5.47,13a14.72,14.72,0,0,1-1-1.63c0-.09-.07-.18-.11-.27C3.89,10,4.26,9.21,5.34,10.43Z"/><path class="a01f79bf-3107-4b95-87f6-706f6dbcda87" d="M15,16.52a1.89,1.89,0,0,0-1.82.08l-1.53,1.1A1.89,1.89,0,0,0,11,19.4a4.31,4.31,0,0,0,.91,2.25l2.41,3.13,4.73-3.4L16.87,18.1A4.24,4.24,0,0,0,15,16.52Z"/><path class="a01f79bf-3107-4b95-87f6-706f6dbcda87" d="M19.84,22.55l-4.65,3.34,14.4,18.66c1,1.29,2.47,1.81,3.35,1.18h0c.88-.63.86-2.19-.05-3.55Z"/></svg>